<mxfile host="app.diagrams.net" modified="2023-08-17T14:29:20.994Z" agent="Mozilla/5.0 (Windows NT 10.0; Win64; x64) AppleWebKit/537.36 (KHTML, like Gecko) Chrome/115.0.0.0 Safari/537.36" version="21.6.8" etag="Kl8bHR3L9mB8LqNBXG41" type="github">
  <diagram name="PÃ¡gina-1" id="423IAOGvtEF4SFqQSOGZ">
    <mxGraphModel>
      <root>
        <mxCell id="0" />
        <mxCell id="1" parent="0" />
      </root>
    </mxGraphModel>
  </diagram>
</mxfile>
